<?xml version="1.0" standalone="no"?>
<!DOCTYPE svg PUBLIC "-//W3C//DTD SVG 20010904//EN"
 "http://www.w3.org/TR/2001/REC-SVG-20010904/DTD/svg10.dtd">
<svg version="1.0" xmlns="http://www.w3.org/2000/svg"
 width="128.000000pt" height="128.000000pt" viewBox="0 0 128.000000 128.000000"
 preserveAspectRatio="xMidYMid meet">
<metadata>
Created by potrace 1.14, written by Peter Selinger 2001-2017
</metadata>
<g transform="translate(0.000000,128.000000) scale(0.100000,-0.100000)"
fill="#000000" stroke="none">
<path d="M156 1198 c3 -5 13 -7 23 -4 14 5 14 4 -1 -7 -10 -8 -15 -17 -11 -20
3 -4 2 -7 -3 -7 -6 0 -9 -37 -8 -85 1 -47 -3 -85 -8 -85 -5 0 -7 4 -4 9 3 5
-1 12 -9 15 -13 4 -14 2 -5 -14 6 -11 14 -20 19 -20 5 0 8 -79 7 -175 0 -153
-2 -175 -16 -170 -11 4 -11 2 2 -8 18 -14 21 -57 3 -57 -6 0 -6 -3 1 -8 8 -5
11 -86 11 -267 -1 -221 -4 -262 -17 -273 -13 -12 -13 -13 2 -8 10 3 20 1 23
-4 3 -5 41 -8 85 -7 l80 1 0 268 0 268 28 1 c31 0 483 0 525 -1 20 0 27 -5 27
-21 0 -13 -4 -18 -12 -13 -10 6 -10 4 -2 -7 14 -18 14 -50 0 -68 -8 -11 -8
-13 2 -7 7 4 12 1 12 -9 0 -10 -5 -13 -12 -9 -10 6 -10 5 -1 -7 15 -18 14
-121 -1 -111 -7 4 -7 1 0 -9 13 -16 17 -142 4 -134 -5 3 -12 1 -15 -5 -4 -6
-3 -10 2 -9 20 3 27 -2 13 -11 -10 -6 -11 -10 -2 -10 6 0 12 -11 12 -24 0 -13
-6 -27 -12 -29 -10 -4 -10 -6 0 -6 6 -1 12 -8 12 -16 0 -8 -6 -15 -12 -16 -41
-3 54 -17 111 -17 l68 0 0 606 c0 375 -3 597 -9 582 -7 -18 -11 -21 -17 -11
-6 9 -11 10 -15 2 -9 -13 -26 -5 -26 12 0 8 3 8 9 -2 6 -9 11 -10 15 -2 4 6
12 9 17 6 5 -4 9 -2 9 4 0 5 -13 9 -30 9 -16 -1 -30 -6 -30 -12 0 -8 -3 -8 -8
-1 -4 6 -17 12 -30 12 -19 2 -21 -1 -12 -13 16 -18 6 -19 -12 -1 -11 11 -18 8
-43 -17 -17 -16 -21 -22 -10 -13 21 16 21 16 22 -39 1 -30 -2 -52 -6 -49 -3 4
-6 11 -6 16 0 5 -3 9 -7 9 -5 0 -11 0 -14 0 -4 0 -1 -7 7 -16 10 -13 10 -17
-2 -25 -11 -8 -9 -9 6 -5 16 5 21 1 22 -15 2 -17 -1 -18 -13 -8 -12 10 -13 9
-8 -5 3 -9 10 -16 15 -16 5 0 9 -8 9 -17 0 -13 -3 -14 -12 -5 -7 7 -17 12 -22
12 -6 0 -1 -7 11 -15 15 -10 21 -25 21 -50 0 -19 -4 -33 -8 -30 -5 3 -12 1
-15 -5 -4 -6 -1 -9 7 -8 9 2 14 -13 15 -55 1 -32 -2 -55 -7 -52 -5 3 -12 0
-16 -6 -4 -7 -3 -9 4 -5 6 3 13 2 17 -4 3 -5 0 -10 -7 -10 -10 0 -10 -2 0 -8
13 -9 13 -62 -1 -62 -4 0 -6 -4 -3 -8 2 -4 -40 -8 -95 -9 -54 -1 -99 3 -99 8
0 4 8 6 18 3 13 -5 14 -4 3 4 -11 8 -11 10 0 14 8 3 -2 5 -23 4 -20 -1 -34 -4
-31 -8 7 -13 -12 -9 -25 4 -9 9 -12 9 -12 0 0 -7 5 -12 10 -12 6 0 10 -4 10
-8 0 -5 -7 -9 -15 -9 -13 0 -18 9 -17 27 0 3 -15 6 -34 6 -36 0 -45 -10 -18
-20 10 -4 13 -2 8 6 -5 8 -2 9 10 5 10 -4 20 -7 22 -7 2 0 4 -4 4 -8 0 -5 -16
-8 -35 -8 -31 1 -39 6 -37 26 1 9 -61 6 -75 -3 -8 -5 -13 -3 -13 5 -1 7 -7 2
-15 -12 -8 -14 -14 -19 -15 -12 0 6 -5 12 -11 12 -5 0 -8 -4 -5 -8 10 -17 -36
-10 -54 8 -18 18 -19 37 -20 260 -1 177 -4 240 -13 240 -8 0 -8 3 1 8 7 5 -10
9 -42 9 -46 0 -54 -3 -44 -14 8 -11 7 -12 -6 -7 -9 3 -16 10 -16 14 0 5 -13 8
-30 8 -16 -1 -27 -5 -24 -10z m107 -13 c-3 -9 -8 -14 -10 -11 -3 3 -2 9 2 15
9 16 15 13 8 -4z m31 0 c-4 -8 -11 -15 -16 -15 -6 0 -5 6 2 15 7 8 14 15 16
15 2 0 1 -7 -2 -15z m691 -5 c3 -5 1 -10 -4 -10 -6 0 -11 5 -11 10 0 6 2 10 4
10 3 0 8 -4 11 -10z m-462 -489 c4 0 7 -5 7 -9 0 -5 -16 -8 -35 -8 -33 1 -42
6 -30 18 5 4 29 4 58 -1z m171 -6 c-4 -8 -14 -15 -23 -15 -14 1 -13 3 3 15 25
19 27 19 20 0z m-344 -5 c0 -5 -4 -10 -10 -10 -5 0 -10 5 -10 10 0 6 5 10 10
10 6 0 10 -4 10 -10z"/>
<path d="M133 1173 c-3 -10 -8 -22 -11 -27 -3 -5 0 -6 6 -2 15 9 15 1 2 -24
-8 -15 -7 -18 3 -15 7 3 13 22 13 45 1 43 -3 50 -13 23z"/>
<path d="M879 1133 c-13 -16 -12 -17 4 -4 9 7 17 15 17 17 0 8 -8 3 -21 -13z"/>
<path d="M133 1088 c-14 -23 -12 -37 5 -30 11 4 12 7 4 10 -10 3 -10 7 -1 18
6 8 9 14 6 14 -3 0 -9 -6 -14 -12z"/>
<path d="M135 1040 c-3 -5 -1 -10 4 -10 6 0 11 5 11 10 0 6 -2 10 -4 10 -3 0
-8 -4 -11 -10z"/>
<path d="M141 954 c0 -11 3 -14 6 -6 3 7 2 16 -1 19 -3 4 -6 -2 -5 -13z"/>
<path d="M876 923 c-6 -14 -5 -15 5 -6 7 7 10 15 7 18 -3 3 -9 -2 -12 -12z"/>
<path d="M130 900 c0 -5 5 -10 11 -10 5 0 7 5 4 10 -3 6 -8 10 -11 10 -2 0 -4
-4 -4 -10z"/>
<path d="M140 871 c0 -7 -5 -9 -12 -5 -7 5 -8 3 -3 -5 5 -9 10 -10 18 -2 6 6
8 14 4 18 -4 3 -7 1 -7 -6z"/>
<path d="M875 840 c3 -5 8 -10 11 -10 2 0 4 5 4 10 0 6 -5 10 -11 10 -5 0 -7
-4 -4 -10z"/>
<path d="M123 825 c0 -8 4 -12 9 -9 12 8 6 -29 -7 -39 -6 -5 -4 -7 4 -5 19 5
24 43 7 57 -9 8 -13 7 -13 -4z"/>
<path d="M120 734 c0 -6 7 -19 16 -30 14 -18 14 -18 3 6 -14 31 -19 36 -19 24z"/>
<path d="M875 731 c-3 -5 0 -13 6 -17 7 -4 9 -3 5 4 -3 5 0 13 6 15 9 4 10 6
1 6 -6 1 -14 -3 -18 -8z"/>
<path d="M377 703 c-4 -3 -7 -11 -7 -17 0 -6 5 -5 12 2 6 6 9 14 7 17 -3 3 -9
2 -12 -2z"/>
<path d="M743 700 c2 -8 12 -16 23 -17 13 -2 15 -1 4 4 -8 3 -19 11 -23 17 -6
7 -7 6 -4 -4z"/>
<path d="M799 693 c-13 -16 -12 -17 4 -4 9 7 17 15 17 17 0 8 -8 3 -21 -13z"/>
<path d="M827 697 c-4 -10 3 -13 24 -12 16 1 32 5 37 10 4 4 -1 5 -12 1 -10
-3 -24 -2 -31 4 -9 8 -14 7 -18 -3z"/>
<path d="M128 678 c10 -13 10 -17 0 -21 -9 -4 -9 -6 -1 -6 20 -2 24 16 5 30
-15 13 -16 12 -4 -3z"/>
<path d="M124 598 c1 -34 2 -34 17 -7 6 13 7 19 1 15 -6 -3 -12 0 -15 6 -2 7
-4 1 -3 -14z"/>
<path d="M125 540 c-3 -5 -2 -10 4 -10 5 0 13 5 16 10 3 6 2 10 -4 10 -5 0
-13 -4 -16 -10z"/>
<path d="M135 500 c-3 -5 -1 -10 4 -10 6 0 11 5 11 10 0 6 -2 10 -4 10 -3 0
-8 -4 -11 -10z"/>
<path d="M137 473 c-4 -3 -7 -11 -7 -17 0 -6 5 -5 12 2 6 6 9 14 7 17 -3 3 -9
2 -12 -2z"/>
<path d="M141 413 c0 -6 -4 -20 -7 -30 -5 -14 -4 -15 5 -7 7 7 11 20 8 30 -3
11 -5 14 -6 7z"/>
<path d="M876 373 c-6 -14 -5 -15 5 -6 7 7 10 15 7 18 -3 3 -9 -2 -12 -12z"/>
<path d="M125 300 c-3 -5 -2 -10 4 -10 5 0 13 5 16 10 3 6 2 10 -4 10 -5 0
-13 -4 -16 -10z"/>
<path d="M120 254 c0 -6 7 -19 16 -30 14 -18 14 -18 3 6 -14 31 -19 36 -19 24z"/>
<path d="M128 198 c10 -13 10 -17 0 -21 -9 -4 -9 -6 -1 -6 20 -2 24 16 5 30
-15 13 -16 12 -4 -3z"/>
<path d="M875 200 c3 -5 8 -10 11 -10 2 0 4 5 4 10 0 6 -5 10 -11 10 -5 0 -7
-4 -4 -10z"/>
<path d="M120 134 c0 -6 7 -19 16 -30 14 -18 14 -18 3 6 -14 31 -19 36 -19 24z"/>
<path d="M128 78 c10 -13 10 -17 0 -21 -9 -4 -9 -6 -1 -6 20 -2 24 16 5 30
-15 13 -16 12 -4 -3z"/>
</g>
</svg>
