<svg xmlns="http://www.w3.org/2000/svg" viewBox="0 0 1485 1485"><g id="Layer_1" data-name="Layer 1"><path d="M1125.07,1680c-409.41,0-742.5-333.07-742.5-742.5S715.66,195,1125.07,195s742.5,333.07,742.5,742.5S1534.5,1680,1125.07,1680Zm0-1428.69c-378.36,0-686.19,307.81-686.19,686.19s307.83,686.19,686.19,686.19,686.2-307.81,686.2-686.19S1503.45,251.31,1125.07,251.31Z" stroke="currentColor" transform="translate(-382.57 -195)" /><rect x="418.58" y="583.26" width="147.84" height="477.62"/><path d="M874.37,715.72c48.29,0,87.42-39.49,87.42-88.15s-39.13-88.12-87.42-88.12S787,578.91,787,627.57,826.07,715.72,874.37,715.72Z" stroke="currentColor" transform="translate(-382.57 -195)"/><path d="M1185.34,1005.16c0-67.14,30.89-107.14,90.07-107.14,54.36,0,80.49,38.39,80.49,107.14v250.72h147.15V953.47c0-127.93-72.52-189.79-173.78-189.79s-143.93,78.92-143.93,78.92V778.26H1043.51v477.62h141.83Z" stroke="currentColor" transform="translate(-382.57 -195)"/></g></svg>